<svg width="138" height="175" viewBox="0 0 138 175" fill="none" xmlns="http://www.w3.org/2000/svg">
<path d="M118.703 84.3609C137.181 97.5427 139.13 120.991 130.261 140.283C121.041 160.347 100.982 172.399 79.3937 174.548C77.1941 174.769 73.6933 174.877 68.8913 174.874C46.0301 174.856 23.2653 174.86 0.596751 174.884C0.151927 174.884 -0.0442135 174.664 0.00832481 174.222L21.176 0.394153C21.204 0.173492 21.3301 0.0631627 21.5543 0.0631627C43.8761 0.0666652 66.2241 0.0456485 88.5984 0.000115272C113.848 -0.0471692 137.186 14.4534 137.974 41.9415C138.464 58.9569 132.039 73.0319 118.698 84.1665C118.683 84.1778 118.672 84.1924 118.664 84.2091C118.656 84.2258 118.652 84.2442 118.653 84.263C118.653 84.2817 118.658 84.3002 118.667 84.3172C118.675 84.3342 118.688 84.3491 118.703 84.3609ZM76.2467 67.2912C76.2061 67.2911 76.1663 67.2803 76.1313 67.26C76.0962 67.2397 76.0671 67.2105 76.0469 67.1754C76.0267 67.1402 76.016 67.1004 76.0161 67.0599C76.0161 67.0193 76.0267 66.9795 76.047 66.9444C83.9908 53.5612 91.9066 40.241 99.7943 26.9838C100.383 25.9926 100.451 25.0819 99.9992 24.2518C99.3845 23.1222 98.1919 23.1905 96.9993 23.1905C86.5407 23.201 76.0785 23.208 65.6129 23.2115C64.5972 23.2115 63.8494 23.7247 63.3695 24.7509C53.1771 46.6454 42.9847 68.5381 32.7922 90.4291C31.8255 92.5043 33.2441 93.6444 35.2405 93.6549C41.9444 93.7075 48.6133 93.6952 55.2471 93.6181C55.3012 93.6178 55.3545 93.6308 55.4024 93.6558C55.4503 93.6809 55.4913 93.7173 55.5219 93.7619C55.5525 93.8064 55.5716 93.8578 55.5778 93.9115C55.5839 93.9652 55.5768 94.0196 55.5571 94.07C47.9215 113.527 40.3105 132.933 32.7239 152.288C32.09 153.909 32.7064 154.964 34.5733 155.45C34.7309 155.492 34.8815 155.471 35.0251 155.387C35.6486 155.034 36.2545 154.482 36.8429 153.732C58.4327 126.195 80.0032 98.6443 101.554 71.0792C102.651 69.6782 102.563 68.5083 101.292 67.5696C101.025 67.3735 100.726 67.2772 100.393 67.2807L76.2467 67.2912Z" fill="#9945FF"/>
</svg>
