<svg width="46" height="46" viewBox="0 0 46 46" fill="none" xmlns="http://www.w3.org/2000/svg">
<rect width="46" height="46" fill="#9945FF"/>
<path d="M40.3914 23.4346H35.6166L38.8797 28.7924H44.7505C44.6961 28.5846 44.6098 28.3865 44.4946 28.2053L42.027 24.3319C41.8518 24.0568 41.6101 23.8305 41.3242 23.6736C41.0383 23.5168 40.7175 23.4346 40.3914 23.4346Z" fill="white"/>
<path d="M33.5128 23.4346H30.0034L27.5148 28.7924H32.9126C33.1509 28.7924 33.3794 28.8871 33.5479 29.0556C33.7164 29.2241 33.8111 29.4526 33.8111 29.6909C33.8111 29.9291 33.7164 30.1577 33.5479 30.3261C33.3794 30.4946 33.1509 30.5893 32.9126 30.5893H27.366L31.5896 42.9616C31.636 43.0972 31.7236 43.215 31.8403 43.2983C31.9569 43.3817 32.0967 43.4265 32.24 43.4265C32.3834 43.4265 32.5232 43.3817 32.6398 43.2983C32.7564 43.215 32.8441 43.0972 32.8905 42.9616L37.3881 29.7979L33.5128 23.4346Z" fill="white"/>
<path d="M35.453 40.9495L44.3602 30.6179C44.3674 30.6088 44.3726 30.5985 44.3798 30.5891H39.0158L35.453 40.9495Z" fill="white"/>
<path d="M22.5041 24.3319L20.0364 28.2053C19.9212 28.3865 19.8348 28.5846 19.7805 28.7924H25.5337L28.0221 23.4346H24.1395C23.8135 23.4346 23.4927 23.5168 23.2068 23.6737C22.9209 23.8305 22.6793 24.0569 22.5041 24.3319Z" fill="white"/>
<path d="M20.1513 30.5894C20.1585 30.5985 20.1635 30.6088 20.1708 30.6181L29.0215 40.9278L25.4663 30.5894H20.1513Z" fill="white"/>
<path d="M27.7257 7.1582H34.1685C35.0072 7.15923 35.8112 7.49286 36.4043 8.08592C36.9973 8.67897 37.3309 9.48302 37.3319 10.3217V14.5511L36.2144 13.5568C35.9652 13.3351 35.638 13.2215 35.305 13.2409C34.972 13.2604 34.6603 13.4114 34.4386 13.6607C34.2169 13.9099 34.1033 14.2371 34.1228 14.5701C34.1422 14.9031 34.2932 15.2148 34.5425 15.4365L37.7537 18.2939C37.984 18.4988 38.2815 18.6119 38.5897 18.6119C38.8979 18.6119 39.1954 18.4988 39.4257 18.2939L42.637 15.4365C42.7604 15.3267 42.861 15.1937 42.933 15.045C43.005 14.8964 43.047 14.735 43.0567 14.5701C43.0663 14.4052 43.0434 14.24 42.9892 14.084C42.935 13.928 42.8506 13.7841 42.7409 13.6607C42.6311 13.5373 42.4981 13.4367 42.3494 13.3647C42.2008 13.2927 42.0394 13.2506 41.8745 13.241C41.7096 13.2313 41.5444 13.2543 41.3884 13.3084C41.2323 13.3626 41.0885 13.447 40.9651 13.5568L39.8475 14.5511V10.3217C39.8457 8.81606 39.2468 7.37259 38.1821 6.30793C37.1175 5.24328 35.674 4.64437 34.1684 4.64258H27.7257C27.5605 4.64258 27.397 4.67511 27.2444 4.73832C27.0918 4.80153 26.9531 4.89418 26.8363 5.01098C26.7195 5.12778 26.6269 5.26644 26.5636 5.41905C26.5004 5.57165 26.4679 5.73521 26.4679 5.90039C26.4679 6.06557 26.5004 6.22913 26.5636 6.38173C26.6269 6.53434 26.7195 6.673 26.8363 6.7898C26.9531 6.9066 27.0918 6.99925 27.2444 7.06246C27.397 7.12567 27.5605 7.1582 27.7257 7.1582Z" fill="white"/>
<path d="M12.8144 23.9185C15.0161 23.9185 17.1682 23.2657 18.9988 22.0425C20.8293 20.8194 22.2561 19.0809 23.0986 17.0469C23.9411 15.0128 24.1616 12.7747 23.7321 10.6154C23.3025 8.45607 22.2424 6.47263 20.6856 4.91586C19.1288 3.35909 17.1454 2.29892 14.9861 1.86941C12.8268 1.4399 10.5886 1.66034 8.55461 2.50286C6.5206 3.34537 4.78209 4.77213 3.55895 6.60269C2.3358 8.43326 1.68295 10.5854 1.68295 12.787C1.68295 15.7393 2.85573 18.5706 4.94329 20.6582C7.03085 22.7457 9.86219 23.9185 12.8144 23.9185ZM13.6659 13.9058H11.9312C11.1243 13.9078 10.3485 13.5946 9.76913 13.033C9.18972 12.4714 8.85253 11.7057 8.82938 10.8991C8.80623 10.0925 9.09896 9.30879 9.64521 8.71487C10.1914 8.12095 10.948 7.76382 11.7537 7.71954V6.28025C11.7506 6.15088 11.7733 6.02218 11.8207 5.90173C11.868 5.78129 11.9389 5.67153 12.0293 5.57892C12.1197 5.4863 12.2277 5.4127 12.347 5.36245C12.4662 5.3122 12.5943 5.28632 12.7237 5.28632C12.8532 5.28632 12.9813 5.3122 13.1005 5.36245C13.2198 5.4127 13.3278 5.4863 13.4182 5.57892C13.5085 5.67153 13.5795 5.78129 13.6268 5.90173C13.6742 6.02218 13.6969 6.15088 13.6938 6.28025V7.70165H15.8297C16.0829 7.70781 16.3236 7.81272 16.5005 7.99396C16.6774 8.1752 16.7764 8.41842 16.7764 8.67167C16.7764 8.92493 16.6774 9.16814 16.5005 9.34939C16.3236 9.53063 16.0829 9.63553 15.8297 9.6417H11.9312C11.6231 9.6417 11.3275 9.76412 11.1096 9.98204C10.8917 10.2 10.7692 10.4955 10.7692 10.8037C10.7692 11.1119 10.8917 11.4074 11.1096 11.6254C11.3275 11.8433 11.6231 11.9657 11.9312 11.9657H13.6657C14.446 11.966 15.1946 12.2752 15.7476 12.8258C16.3006 13.3764 16.6132 14.1235 16.6169 14.9039C16.6206 15.6843 16.3152 16.4344 15.7674 16.9902C15.2197 17.546 14.4741 17.8624 13.6938 17.8701V19.2932C13.6969 19.4226 13.6742 19.5513 13.6268 19.6717C13.5795 19.7922 13.5085 19.9019 13.4182 19.9945C13.3278 20.0872 13.2198 20.1608 13.1005 20.211C12.9813 20.2613 12.8532 20.2871 12.7237 20.2871C12.5943 20.2871 12.4662 20.2613 12.347 20.211C12.2277 20.1608 12.1197 20.0872 12.0293 19.9945C11.9389 19.9019 11.868 19.7922 11.8207 19.6717C11.7733 19.5513 11.7506 19.4226 11.7537 19.2932V17.8729H9.79872C9.54554 17.8667 9.30481 17.7618 9.12792 17.5806C8.95104 17.3993 8.85202 17.1561 8.85202 16.9029C8.85202 16.6496 8.95104 16.4064 9.12792 16.2252C9.30481 16.0439 9.54554 15.939 9.79872 15.9328H13.6656C13.9344 15.9328 14.1921 15.8261 14.3822 15.636C14.5723 15.446 14.679 15.1882 14.679 14.9194C14.679 14.6506 14.5723 14.3929 14.3822 14.2028C14.1921 14.0127 13.9347 13.9058 13.6659 13.9058Z" fill="white"/>
<path d="M18.6283 40.7326H12.1855C11.3469 40.7316 10.5428 40.398 9.94975 39.805C9.3567 39.2119 9.0231 38.4079 9.02211 37.5692V33.3507L10.1395 34.3453C10.263 34.4551 10.4068 34.5394 10.5628 34.5936C10.7189 34.6478 10.8841 34.6708 11.049 34.6611C11.2139 34.6515 11.3752 34.6094 11.5239 34.5374C11.6725 34.4654 11.8055 34.3648 11.9153 34.2414C12.0251 34.118 12.1095 33.9741 12.1637 33.8181C12.2179 33.6621 12.2408 33.4969 12.2312 33.332C12.2215 33.1671 12.1795 33.0057 12.1075 32.857C12.0354 32.7084 11.9349 32.5754 11.8114 32.4656L8.60027 29.6074C8.3699 29.4024 8.0722 29.2892 7.7638 29.2893C7.4554 29.2894 7.1578 29.4029 6.9276 29.6081L3.71709 32.466C3.59374 32.5759 3.49325 32.709 3.42134 32.8577C3.34944 33.0065 3.30753 33.1679 3.29801 33.3328C3.28849 33.4977 3.31155 33.6629 3.36587 33.8189C3.42019 33.9749 3.50471 34.1187 3.61459 34.2421C3.72448 34.3654 3.85758 34.4659 4.00631 34.5378C4.15503 34.6097 4.31646 34.6516 4.48138 34.6611C4.6463 34.6707 4.81148 34.6476 4.96749 34.5933C5.1235 34.539 5.26728 34.4544 5.39062 34.3446L6.5067 33.351V37.5692C6.50851 39.0748 7.10741 40.5182 8.17205 41.5829C9.23669 42.6475 10.6801 43.2464 12.1858 43.2482H18.6286C18.9622 43.2482 19.2821 43.1157 19.518 42.8798C19.7539 42.6439 19.8864 42.324 19.8864 41.9904C19.8864 41.6568 19.7539 41.3369 19.518 41.101C19.2821 40.8651 18.9619 40.7326 18.6283 40.7326Z" fill="white"/>
</svg>
