<svg width="36" height="62" viewBox="0 0 36 62" fill="none" xmlns="http://www.w3.org/2000/svg">
<path d="M34.1507 21.6999H19.9941L33.1174 1.0332H16.5841L1.08409 32.0332H13.2774L1.08409 60.9666L34.1507 21.6999Z" fill="#9945FF"/>
<path d="M20.7174 1.0332H16.5841L1.08409 32.0332H5.21738L20.7174 1.0332Z" fill="#B475FF"/>
<path d="M28.9849 21.7002L4.18491 51.1502L0.0516205 60.9669L33.1182 21.7002H28.9849Z" fill="#8118FF"/>
<path d="M1.08503 62C0.878323 62 0.671738 62 0.568324 61.8967C0.155031 61.5867 -0.0516768 61.07 0.15503 60.6567L11.7283 33.0667H1.08503C0.77503 33.0667 0.361737 32.86 0.15503 32.55C-0.0516768 32.24 -0.0516768 31.8267 0.15503 31.5167L15.655 0.516707C15.8617 0.206707 16.1717 0 16.585 0H33.1183C33.5316 0 33.8416 0.206707 34.0483 0.516707C34.255 0.826707 34.255 1.24 34.0483 1.55L21.9583 20.6667H34.1516C34.5649 20.6667 34.8749 20.8734 35.0816 21.2867C35.2883 21.7 35.1849 22.1134 34.9783 22.4234L1.91162 61.69C1.70503 61.8967 1.39503 62 1.08503 62ZM2.73832 31H13.2783C13.5883 31 13.8983 31.2067 14.105 31.4133C14.3117 31.7233 14.3117 32.0333 14.2083 32.3433L4.70162 55.0766L31.9816 22.7333H19.9949C19.5816 22.7333 19.2716 22.5266 19.0649 22.2166C18.8582 21.9066 18.8582 21.4933 19.0649 21.1833L31.2583 2.06671H17.205L2.73832 31Z" fill="#9945FF"/>
</svg>
